PathFileType	4	(X/Y/Z)	C:\Users\Basilio\Documents\Thesis Gigler\squatting_fais\c3dfiles\054\SLS_back_pre1\markers_experimental.trc
DataRate	CameraRate	NumFrames	NumMarkers	Units	OrigDataRate	OrigDataStartFrame	OrigNumFrames
200.000000	200.000000	4	61	mm	200.000000	869	1738
Frame#	Time	FHD			LBHD			RBHD			C7			T10			CLAV			LSHO			LUUPA			LMUPA			LDUPA			LLEP			LMEP			LRAD			LUL			LRFIN			RSHO			RUPA1			RMUPA			RDUPA			RLEP			RMEP			RRAD			RUL			RUFIN			LASI			RASI			USACR			LSACR			RSACR			LTHI1			LTHI2			LTHI3			LTHI4			LLFC			LMFC			LTIB1			LTIB2			LTIB3			LTIB4			LLMAL			LMMAL			LHEE			LMT1			LMT2			LMT5			RTHI			RTHI2			RTHI3			RTHI4			RLFC			RMFC			RTIB1			RTIB2			RTIB3			RTIB4			RLMAL			RMMAL			RHEE			RMT1			RMT2			RMT5			
		X1	Y1	Z1	X2	Y2	Z2	X3	Y3	Z3	X4	Y4	Z4	X5	Y5	Z5	X6	Y6	Z6	X7	Y7	Z7	X8	Y8	Z8	X9	Y9	Z9	X10	Y10	Z10	X11	Y11	Z11	X12	Y12	Z12	X13	Y13	Z13	X14	Y14	Z14	X15	Y15	Z15	X16	Y16	Z16	X17	Y17	Z17	X18	Y18	Z18	X19	Y19	Z19	X20	Y20	Z20	X21	Y21	Z21	X22	Y22	Z22	X23	Y23	Z23	X24	Y24	Z24	X25	Y25	Z25	X26	Y26	Z26	X27	Y27	Z27	X28	Y28	Z28	X29	Y29	Z29	X30	Y30	Z30	X31	Y31	Z31	X32	Y32	Z32	X33	Y33	Z33	X34	Y34	Z34	X35	Y35	Z35	X36	Y36	Z36	X37	Y37	Z37	X38	Y38	Z38	X39	Y39	Z39	X40	Y40	Z40	X41	Y41	Z41	X42	Y42	Z42	X43	Y43	Z43	X44	Y44	Z44	X45	Y45	Z45	X46	Y46	Z46	X47	Y47	Z47	X48	Y48	Z48	X49	Y49	Z49	X50	Y50	Z50	X51	Y51	Z51	X52	Y52	Z52	X53	Y53	Z53	X54	Y54	Z54	X55	Y55	Z55	X56	Y56	Z56	X57	Y57	Z57	X58	Y58	Z58	X59	Y59	Z59	X60	Y60	Z60	X61	Y61	Z61	

870	4.345	-106.6038970947266	1667.85302734375	-1060.72314453125	-269.0989990234376	1614.55810546875	-1128.897705078125	-284.2442932128907	1614.419067382813	-989.2167968750002	-319.7013549804688	1458.352294921875	-1044.177612304688	-417.506072998047	1149.18212890625	-1040.634765625	-184.5242156982422	1382.624755859375	-1056.79443359375	-260.0926513671876	1450.47998046875	-1198.26708984375	-120.2673721313477	1336.115600585938	-1330.418212890625	-87.70066070556642	1370.000244140625	-1317.2841796875	-53.18926239013673	1327.622314453125	-1342.709716796875	5.679351806640626	1330.8271484375	-1341.243286132813	7.456093311309816	1265.016235351563	-1298.053588867188	259.6095275878907	1357.203491210938	-1254.69677734375	277.7086486816407	1328.817626953125	-1324.5244140625	351.4408264160157	1380.781982421875	-1269.819946289063	-237.7814025878907	1448.989868164063	-908.9796142578127	-77.56078338623048	1345.269409179688	-788.8823852539065	-44.74080657958985	1376.765625	-803.4590454101565	-8.866921424865724	1331.273681640625	-782.2762451171877	35.47695541381837	1327.623168945313	-787.4990234375002	30.42679977416993	1270.414306640625	-837.2149658203127	292.3753967285157	1384.890747070313	-904.6626586914065	300.7305297851563	1351.119873046875	-832.6398925781252	367.0498657226563	1416.827392578125	-894.9218750000002	-277.6625671386719	944.507263183594	-1158.883666992188	-286.4918212890626	937.9266357421877	-911.1478271484377	-442.561248779297	1069.368286132813	-1039.47412109375	-456.5010375976564	1041.194702148438	-1069.887329101563	-456.7563476562501	1038.112915039063	-1012.105529785156	-299.9588928222657	724.7799072265626	-1240.749267578125	-237.3145446777344	668.1947631835939	-1228.07177734375	-198.2254943847657	691.4628295898439	-1218.680297851563	-241.004379272461	610.1001586914064	-1211.863159179688	-183.1933746337891	478.2862854003907	-1168.595703125	-162.4224395751953	499.4696350097657	-1034.5986328125	-188.2850494384766	326.6141967773438	-1089.719848632813	-249.5896606445313	289.7370910644532	-1140.704833984375	-213.9998016357422	278.9234313964844	-1113.948608398438	-249.4847412109376	217.7935638427735	-1067.716430664063	-352.7318420410157	108.2555389404297	-1092.988159179688	-321.4489746093751	133.1976623535157	-1002.63330078125	-424.946014404297	100.7932586669922	-1033.961669921875	-214.6791992187501	54.5263137817383	-1011.266418457031	-206.8834838867188	53.63502502441408	-1060.706298828125	-258.3985290527344	38.31552886962891	-1112.390869140625	-393.6265258789064	652.6690673828126	-823.6108398437502	-357.4248046875001	596.0805053710939	-817.940368652344	-324.1460876464844	593.8851318359376	-822.9199829101565	-390.3119506835939	519.6234130859376	-832.8435668945315	-415.3392944335939	466.2732543945314	-838.3024902343752	-358.6294555664063	431.1214599609376	-961.428161621094	-483.5743408203126	379.7994995117188	-862.139099121094	-577.2709350585939	429.4416503906251	-846.3858032226565	-570.5315551757814	384.1654663085939	-858.4425048828127	-609.2120971679689	360.2817993164063	-893.2669677734377	-793.9279785156252	377.5771484375001	-911.0999145507815	-749.4640502929689	344.0943908691407	-990.1727294921877	-804.5045166015627	439.469207763672	-975.024841308594	-825.214294433594	218.6737823486329	-1000.391967773438	-838.3430786132815	214.8772430419922	-953.1497802734377	-872.6851806640627	262.5684509277344	-915.890075683594	
871	4.350000000000001	-106.1956481933594	1666.5439453125	-1061.007934570313	-268.7489929199219	1613.319946289063	-1129.130737304688	-283.9011840820313	1612.846923828125	-989.2746582031252	-319.3283081054688	1456.998046875	-1044.203491210938	-417.411346435547	1148.018798828125	-1040.644897460938	-184.1447296142578	1381.255493164063	-1056.87255859375	-259.7452392578126	1449.248291015625	-1198.463745117188	-119.9887771606446	1334.818969726563	-1330.31103515625	-87.2061004638672	1368.582275390625	-1317.2119140625	-52.69701004028322	1326.528442382813	-1342.788940429688	6.146514892578127	1329.485595703125	-1341.228515625	7.599690437316896	1263.966796875	-1298.165283203125	259.8206787109376	1355.645263671875	-1254.565185546875	278.0965270996094	1327.290405273438	-1324.409057617188	352.1454467773438	1379.14111328125	-1269.715454101563	-237.3276824951172	1447.844848632813	-909.0635986328127	-77.38918304443361	1344.029663085938	-788.9190063476565	-44.35715103149415	1375.630859375	-803.6470336914065	-8.436817169189455	1330.117919921875	-782.4636840820315	35.78883743286134	1326.482177734375	-787.8037719726565	30.72529029846192	1269.484741210938	-837.2443847656252	292.2290649414063	1383.835205078125	-904.6610107421877	301.2710571289063	1349.9375	-832.7718505859377	367.6033935546876	1415.488891601563	-895.0903320312502	-278.1408996582032	943.413024902344	-1158.87060546875	-286.9645385742188	936.6829833984377	-911.2903442382815	-443.126434326172	1068.652099609375	-1039.503540039063	-457.2629394531251	1040.450073242188	-1069.855102539063	-457.0303649902345	1037.280029296875	-1012.106872558594	-300.4384155273438	724.0348510742189	-1240.744873046875	-237.141098022461	667.4317016601564	-1227.969116210938	-198.1403503417969	690.9943847656251	-1218.531494140625	-240.7384490966797	609.5193481445314	-1211.695190429688	-182.320785522461	477.8459472656251	-1168.43505859375	-161.5989990234375	498.9229736328126	-1034.334838867188	-187.6883087158203	326.2220764160157	-1089.685302734375	-249.0288848876954	289.5057983398438	-1140.589965820313	-213.7203369140626	278.7161254882813	-1113.787231445313	-249.3479614257813	217.4744873046876	-1067.525268554688	-352.6451416015626	108.2740249633789	-1092.961303710938	-321.4390563964844	133.203353881836	-1002.568908691406	-424.9358215332032	100.7830123901367	-1033.9521484375	-214.6646575927735	54.51622390747072	-1011.244079589844	-206.8965911865235	53.63306808471681	-1060.714477539063	-258.5397644042969	38.28522872924805	-1112.3486328125	-394.0923461914064	651.6528930664064	-823.7036743164065	-358.2030029296876	595.2243652343751	-817.8006591796877	-324.9039306640626	592.7086791992189	-822.8836669921877	-391.0141601562501	518.6353149414064	-832.951354980469	-416.2185668945314	465.3665466308595	-838.3919677734377	-360.0059509277344	430.3631286621095	-961.363464355469	-484.5641479492189	378.9971618652344	-861.9602661132815	-578.2258911132814	428.5541381835939	-846.4370727539065	-571.8233032226564	383.7680358886719	-857.4282226562502	-610.3103637695314	359.4640502929688	-893.2817382812502	-794.8795166015627	377.1273193359376	-910.9987792968752	-750.4727172851564	343.5504455566407	-990.1794433593752	-805.7210083007815	438.8411254882814	-974.9851684570315	-826.6043701171877	217.897689819336	-1000.360107421875	-839.5830078125002	214.2848205566407	-953.186462402344	-873.9488525390627	262.1228027343751	-915.9467773437502	
872	4.355	-105.8060073852539	1665.263671875	-1061.095703125	-268.3510131835938	1611.930053710938	-1129.225341796875	-283.3871154785157	1611.63525390625	-989.4547119140627	-318.9010009765626	1455.901489257813	-1044.409912109375	-417.5443420410157	1147.141723632813	-1040.746337890625	-183.9559173583985	1379.84521484375	-1056.971801757813	-259.2196960449219	1447.9375	-1198.355346679688	-119.6800918579102	1333.513916015625	-1330.318115234375	-86.6751174926758	1367.509521484375	-1317.147338867188	-52.30622863769533	1325.026733398438	-1342.708251953125	6.574394702911379	1328.191650390625	-1341.1591796875	8.067073822021486	1262.640747070313	-1298.279541015625	260.3011779785157	1354.315673828125	-1254.398803710938	279.4598388671876	1325.6611328125	-1324.416870117188	352.6045532226563	1377.588989257813	-1269.50634765625	-236.9826354980469	1446.693969726563	-909.2397460937502	-77.03696441650392	1342.972778320313	-788.9179687500002	-43.95404052734376	1374.422973632813	-803.7463989257815	-8.078074455261232	1329.026611328125	-782.6116333007815	36.29154586791993	1325.333984375	-787.9407348632815	31.20484924316407	1268.24755859375	-837.237487792969	292.7044372558594	1382.630249023438	-904.8399047851565	301.4993591308594	1348.756591796875	-832.7821044921877	367.6911010742188	1414.427612304688	-895.1748657226565	-278.5196533203126	942.1895751953127	-1158.867309570313	-287.3074951171876	935.6328125000002	-911.284362792969	-443.0708618164064	1067.448120117188	-1039.587524414063	-457.3254699707032	1039.412109375	-1069.901977539063	-456.8458862304689	1036.217529296875	-1012.279113769531	-300.4324035644532	723.0247802734376	-1240.670043945313	-237.0462799072266	666.8167114257814	-1227.741333007813	-198.0364227294922	690.4790649414064	-1218.386352539063	-239.8605499267579	608.7596435546876	-1211.840454101563	-182.7210845947266	477.7163391113282	-1168.046875	-160.8433990478516	498.4656982421876	-1034.000244140625	-187.1699676513672	325.8809204101563	-1089.54150390625	-248.628890991211	289.3125000000001	-1140.42919921875	-213.4911804199219	278.5057678222657	-1113.617065429688	-249.2113952636719	217.3668823242188	-1067.403686523438	-352.6249694824219	108.4084243774414	-1092.970458984375	-321.4439086914063	133.1633453369141	-1002.486328125	-424.9783630371095	100.7643737792969	-1033.97216796875	-214.6669464111329	54.52108001708986	-1011.241333007813	-206.8963165283204	53.63515090942384	-1060.721313476563	-258.4693908691407	38.33820724487305	-1112.353881835938	-394.9696044921876	650.4497680664064	-823.6562500000002	-358.9754943847657	594.0494384765626	-817.998962402344	-325.5433654785157	591.6160278320314	-822.8901977539065	-391.9497680664064	517.3658447265626	-832.8785400390627	-416.9542846679689	464.0827026367189	-838.543151855469	-361.0223388671876	429.3570861816407	-961.3546142578127	-485.7076721191407	377.8625183105469	-862.5634765625002	-579.1819458007814	427.7683410644532	-846.4597778320315	-572.6978759765626	382.6337280273438	-858.224060058594	-611.2388916015626	358.6225280761719	-893.191101074219	-796.1843261718752	376.6792602539063	-911.0721435546877	-751.5191040039064	343.0279235839844	-990.3105468750002	-806.603210449219	438.4783325195314	-975.0830688476565	-827.4860839843752	217.6830596923829	-1000.337097167969	-840.942077636719	213.8584899902344	-953.0922851562502	-874.9456176757815	261.5851745605469	-915.938659667969	
873	4.36	-105.2665786743164	1663.890014648438	-1061.330078125	-267.8688659667969	1610.661987304688	-1129.329833984375	-283.1290588378907	1610.3115234375	-989.473571777344	-318.5902099609376	1454.640502929688	-1044.420654296875	-417.651824951172	1146.083740234375	-1040.7724609375	-183.9275360107422	1378.406127929688	-1057.192138671875	-258.8567810058594	1446.753295898438	-1198.427124023438	-119.4289321899414	1332.163208007813	-1330.21875	-86.22811889648439	1366.246948242188	-1317.204345703125	-51.74373626708986	1323.878662109375	-1342.73681640625	6.964160442352297	1326.916625976563	-1341.015869140625	8.634411811828615	1261.245849609375	-1298.290405273438	260.6730041503907	1352.769165039063	-1254.335327148438	278.7796936035157	1324.461547851563	-1324.116455078125	353.0503845214844	1376.22509765625	-1269.423095703125	-236.5655059814454	1445.36328125	-909.3566894531252	-76.74924468994142	1342.015991210938	-789.1159667968752	-43.3817253112793	1373.465087890625	-803.9729003906252	-7.803835868835451	1327.913696289063	-782.664978027344	36.56894683837891	1324.168579101563	-788.0399169921877	31.50506210327149	1267.0224609375	-837.309509277344	292.9272766113282	1381.326782226563	-904.8031005859377	301.9768371582032	1347.637329101563	-832.9636840820315	368.1161499023438	1413.117431640625	-895.3327636718752	-278.8220214843751	941.301452636719	-1158.843505859375	-287.8205261230469	934.4102172851565	-911.2056884765627	-443.4972229003907	1066.561767578125	-1039.621459960938	-457.3137512207032	1038.422973632813	-1069.95458984375	-457.5376281738282	1035.125244140625	-1012.111145019531	-300.3943481445313	722.1198730468751	-1240.532836914063	-236.8549804687501	666.2531738281251	-1227.599975585938	-197.9457550048829	689.9466552734376	-1218.219604492188	-240.2924346923829	608.1278076171876	-1211.377197265625	-181.8772583007813	477.2480468750001	-1167.75732421875	-160.3025360107422	498.212371826172	-1033.853393554688	-186.6341857910157	325.4881286621094	-1089.28515625	-248.3072357177735	289.1678771972657	-1140.253173828125	-213.2092742919922	278.2166748046876	-1113.4189453125	-249.1548309326172	217.0108489990235	-1067.255615234375	-352.6626281738282	108.3618621826172	-1093.014282226563	-321.3578491210938	133.1387329101563	-1002.447021484375	-424.9805908203126	100.7532043457032	-1033.926513671875	-214.6885986328126	54.5112762451172	-1011.240600585938	-206.8769836425782	53.65956115722658	-1060.692016601563	-258.5348815917969	38.35742568969727	-1112.357299804688	-395.8182983398439	649.5308837890626	-823.5209960937502	-359.9155578613282	592.8858032226564	-817.669860839844	-326.6430053710938	590.4050903320314	-822.9882812500002	-392.8798217773439	516.4383544921876	-832.9370117187502	-418.1662597656251	463.0904235839845	-838.3940429687502	-362.0104980468751	428.1641235351564	-961.3450927734377	-486.5952758789064	377.0508117675782	-861.7061157226565	-580.2130126953126	427.1224670410157	-846.2925415039065	-573.7307128906251	382.0529479980469	-857.3477783203127	-612.3822021484376	357.9626770019532	-893.3237304687502	-797.0567626953127	376.1340332031251	-910.986022949219	-752.7451782226564	342.3156127929688	-990.120056152344	-807.5606689453127	437.958953857422	-975.099060058594	-828.8169555664065	217.2507934570313	-1000.143432617188	-842.0867919921877	213.4079284667969	-953.1492919921877	-876.2957153320315	261.3178710937501	-915.8524169921877	
